<svg width="20" height="20" viewBox="0 0 20 20" fill="none" xmlns="http://www.w3.org/2000/svg">
<path d="M6.66667 1.66663C7.1269 1.66663 7.5 2.03972 7.5 2.49996V3.74996H5.83333V2.49996C5.83333 2.03972 6.20643 1.66663 6.66667 1.66663Z" fill="#667185"/>
<path d="M12.5 4.16663H7.5V4.99996C7.5 5.4602 7.1269 5.83329 6.66667 5.83329C6.20643 5.83329 5.83333 5.4602 5.83333 4.99996V4.16663H5C3.61929 4.16663 2.5 5.28591 2.5 6.66663V7.08329H17.5V6.66663C17.5 5.28591 16.3807 4.16663 15 4.16663H14.1667V4.99996C14.1667 5.4602 13.7936 5.83329 13.3333 5.83329C12.8731 5.83329 12.5 5.4602 12.5 4.99996V4.16663Z" fill="#667185"/>
<path fill-rule="evenodd" clip-rule="evenodd" d="M2.5 8.74996V15.8333C2.5 17.214 3.61929 18.3333 5 18.3333H15C16.3807 18.3333 17.5 17.214 17.5 15.8333V8.74996H2.5ZM4.16667 15C4.16667 14.5397 4.53976 14.1666 5 14.1666H10.8333C11.2936 14.1666 11.6667 14.5397 11.6667 15C11.6667 15.4602 11.2936 15.8333 10.8333 15.8333H5C4.53976 15.8333 4.16667 15.4602 4.16667 15ZM13.3333 14.1666C12.8731 14.1666 12.5 14.5397 12.5 15C12.5 15.4602 12.8731 15.8333 13.3333 15.8333H15C15.4602 15.8333 15.8333 15.4602 15.8333 15C15.8333 14.5397 15.4602 14.1666 15 14.1666H13.3333Z" fill="#667185"/>
<path d="M14.1667 2.49996C14.1667 2.03972 13.7936 1.66663 13.3333 1.66663C12.8731 1.66663 12.5 2.03972 12.5 2.49996V3.74996H14.1667V2.49996Z" fill="#667185"/>
</svg>
