<svg width="20" height="20" viewBox="0 0 20 20" fill="none" xmlns="http://www.w3.org/2000/svg">
<path fill-rule="evenodd" clip-rule="evenodd" d="M10.8334 1.66663H5.83337C4.45266 1.66663 3.33337 2.78591 3.33337 4.16663V15.8333C3.33337 17.214 4.45266 18.3333 5.83337 18.3333H14.1667C15.5474 18.3333 16.6667 17.214 16.6667 15.8333V8.33329H14.1667C12.3258 8.33329 10.8334 6.84091 10.8334 4.99996V1.66663ZM16.4971 6.66663C16.3998 6.41604 16.262 6.18092 16.0873 5.97129L13.2497 2.56616C13.0392 2.31357 12.7838 2.1082 12.5 1.9578V4.99996C12.5 5.92043 13.2462 6.66663 14.1667 6.66663H16.4971ZM13.9646 15.65C13.8146 15.65 13.673 15.6 13.548 15.4917C13.0563 15.0583 12.7813 14.875 12.6396 14.7917C12.6184 14.8081 12.5953 14.8259 12.5709 14.8447L12.5705 14.845C12.5085 14.8926 12.4386 14.9463 12.373 15C11.823 15.425 11.5146 15.65 11.1813 15.65C10.723 15.65 10.023 15.4917 9.57296 14.65L9.38962 14.925C9.09796 15.3583 8.73962 15.5833 8.33962 15.5917C7.72296 15.5833 7.28129 15.1583 6.86462 14.6417C6.62296 14.9083 6.35629 15.1833 6.06462 15.475C5.81462 15.7167 5.42296 15.7167 5.18129 15.475C4.93962 15.2333 4.93962 14.8333 5.18129 14.5917C5.56462 14.2083 5.88129 13.8667 6.14796 13.5667C5.80629 12.9333 5.47296 12.125 5.45629 11.4167C5.44796 10.7833 5.63962 10.2333 6.00629 9.85833C6.28129 9.575 6.63962 9.41667 7.00629 9.41667C7.77296 9.41667 8.55629 9.65 8.55629 11.4083C8.55629 12.0667 8.26462 12.8083 7.66462 13.6583L7.73962 13.7583C8.02296 14.1333 8.18962 14.275 8.27296 14.3333C8.27939 14.3237 8.28707 14.314 8.2955 14.3034C8.30892 14.2865 8.32427 14.2672 8.33962 14.2417L9.26462 12.875C9.41462 12.6583 9.67296 12.5583 9.93129 12.6167C10.1813 12.675 10.373 12.8917 10.4063 13.1417C10.5396 14.2083 10.873 14.3833 11.073 14.4083C11.2063 14.325 11.448 14.1417 11.598 14.025C12.0563 13.6667 12.273 13.5083 12.5563 13.5083C12.9146 13.5083 13.3563 13.6917 14.3563 14.575C14.6146 14.8 14.6396 15.2 14.4146 15.4583C14.2896 15.6 14.1146 15.6667 13.948 15.6667L13.9646 15.65ZM7.21462 10.6333C7.21462 10.6333 7.09796 10.65 7.02296 10.65C7.00629 10.65 6.96462 10.6667 6.91462 10.7167C6.85629 10.775 6.71462 10.9667 6.72296 11.3833C6.72296 11.6667 6.83962 12.0333 6.98962 12.4C7.26462 11.9167 7.32296 11.5917 7.32296 11.3917C7.32296 10.7833 7.21462 10.6417 7.21462 10.6417V10.6333ZM5.97335 6.24996H9.30668C9.64835 6.24996 9.93168 5.96663 9.93168 5.62496C9.93168 5.28329 9.64835 4.99996 9.30668 4.99996H5.97335C5.63168 4.99996 5.34835 5.28329 5.34835 5.62496C5.34835 5.96663 5.63168 6.24996 5.97335 6.24996Z" fill="#667185"/>
</svg>
