<svg width="20" height="20" viewBox="0 0 20 20" fill="none" xmlns="http://www.w3.org/2000/svg">
<path d="M10.8333 9.99996C10.8333 9.53972 10.4602 9.16663 9.99996 9.16663C9.53972 9.16663 9.16663 9.53972 9.16663 9.99996C9.16663 10.4602 9.53972 10.8333 9.99996 10.8333C10.4602 10.8333 10.8333 10.4602 10.8333 9.99996Z" fill="#667185"/>
<path fill-rule="evenodd" clip-rule="evenodd" d="M4.16663 4.16663H15.8333C17.214 4.16663 18.3333 5.28591 18.3333 6.66663V13.3333C18.3333 14.714 17.214 15.8333 15.8333 15.8333H4.16663C2.78591 15.8333 1.66663 14.714 1.66663 13.3333V6.66663C1.66663 5.28591 2.78591 4.16663 4.16663 4.16663ZM4.16663 5.41663C3.70639 5.41663 3.33329 5.78972 3.33329 6.24996C3.33329 6.7102 3.70639 7.08329 4.16663 7.08329H5.83329C6.29353 7.08329 6.66663 6.7102 6.66663 6.24996C6.66663 5.78972 6.29353 5.41663 5.83329 5.41663H4.16663ZM13.3333 6.24996C13.3333 5.78972 13.7064 5.41663 14.1666 5.41663H15.8333C16.2935 5.41663 16.6666 5.78972 16.6666 6.24996C16.6666 6.7102 16.2935 7.08329 15.8333 7.08329H14.1666C13.7064 7.08329 13.3333 6.7102 13.3333 6.24996ZM4.16663 12.9166C3.70639 12.9166 3.33329 13.2897 3.33329 13.75C3.33329 14.2102 3.70639 14.5833 4.16663 14.5833H5.83329C6.29353 14.5833 6.66663 14.2102 6.66663 13.75C6.66663 13.2897 6.29353 12.9166 5.83329 12.9166H4.16663ZM13.3333 13.75C13.3333 13.2897 13.7064 12.9166 14.1666 12.9166H15.8333C16.2935 12.9166 16.6666 13.2897 16.6666 13.75C16.6666 14.2102 16.2935 14.5833 15.8333 14.5833H14.1666C13.7064 14.5833 13.3333 14.2102 13.3333 13.75ZM9.99996 7.49996C11.3807 7.49996 12.5 8.61925 12.5 9.99996C12.5 11.3807 11.3807 12.5 9.99996 12.5C8.61925 12.5 7.49996 11.3807 7.49996 9.99996C7.49996 8.61925 8.61925 7.49996 9.99996 7.49996Z" fill="#667185"/>
</svg>
