<svg width="20" height="20" viewBox="0 0 20 20" fill="none" xmlns="http://www.w3.org/2000/svg">
<path d="M7.11168 2.93764C8.12586 2.61849 9.02811 2.35701 9.54415 2.2107C9.84434 2.12559 10.1537 2.12945 10.4518 2.22136C11.8344 2.64751 16.0106 3.96676 17.6561 4.84807L14.745 6.07372L7.11168 2.93764Z" fill="#667185"/>
<path d="M5.28805 3.5398C4.07575 3.9625 2.92606 4.41756 2.25903 4.81695C2.28133 4.82352 2.30349 4.83141 2.32542 4.84064L9.99953 8.07176L13.1205 6.7577L5.28805 3.5398Z" fill="#667185"/>
<path d="M1.57703 5.78389C1.38086 7.1661 1.5325 11.4918 1.61802 13.5173C1.64549 14.168 2.05381 14.7384 2.65849 14.9802L9.38059 17.6691C9.38701 17.6716 9.39343 17.6742 9.39987 17.6766C9.38338 17.6206 9.37453 17.5613 9.37453 17.4999V9.16489L1.84036 5.99269C1.73114 5.94671 1.64182 5.87332 1.57703 5.78389Z" fill="#667185"/>
<path d="M10.5992 17.6767C10.6056 17.6742 10.6121 17.6717 10.6186 17.6691L17.3407 14.9802C17.9454 14.7384 18.3537 14.168 18.3811 13.5173C18.4667 11.4918 18.6184 7.16593 18.4221 5.7838C18.3573 5.87327 18.268 5.94669 18.1587 5.99269L10.6245 9.16489V17.4999C10.6245 17.5613 10.6157 17.6206 10.5992 17.6767Z" fill="#667185"/>
</svg>
