<svg width="31" height="32" viewBox="0 0 31 32" fill="none" xmlns="http://www.w3.org/2000/svg">
<path fill-rule="evenodd" clip-rule="evenodd" d="M16.5768 6.3125C16.5768 5.71803 16.0949 5.23611 15.5004 5.23611C14.9059 5.23611 14.424 5.71803 14.424 6.3125V6.92698C10.7728 7.44909 7.96567 10.5882 7.96567 14.3842L7.96567 18.6902C7.96567 18.6902 7.96568 18.6901 7.96567 18.6902C7.96556 18.6923 7.96483 18.7067 7.96017 18.735C7.95456 18.7689 7.94461 18.815 7.92819 18.8743C7.8949 18.9945 7.84192 19.1442 7.76791 19.3212C7.61951 19.676 7.4103 20.0845 7.17893 20.4967C6.74391 21.2716 6.52463 22.1951 6.68925 23.0732C6.86286 23.9993 7.45895 24.8069 8.47702 25.1945C9.38647 25.5408 10.597 25.8575 12.1957 26.046C12.2338 26.0789 12.2787 26.1167 12.3304 26.158C12.4922 26.2874 12.7233 26.4552 13.0154 26.6221C13.5951 26.9533 14.4522 27.3021 15.5004 27.3021C16.5486 27.3021 17.4057 26.9533 17.9854 26.6221C18.2775 26.4552 18.5086 26.2874 18.6704 26.158C18.722 26.1167 18.767 26.0789 18.8051 26.046C20.4037 25.8575 21.6143 25.5408 22.5238 25.1945C23.5418 24.8069 24.1379 23.9993 24.3115 23.0732C24.4762 22.1951 24.2569 21.2716 23.8219 20.4967C23.5905 20.0845 23.3813 19.676 23.2329 19.3212C23.1589 19.1442 23.1059 18.9945 23.0726 18.8743C23.0562 18.815 23.0462 18.7689 23.0406 18.735C23.0359 18.7067 23.0352 18.6925 23.0351 18.6905C23.0351 18.6903 23.0351 18.6905 23.0351 18.6905L23.0351 18.6814V14.3848C23.0351 10.5888 20.2281 7.44918 16.5768 6.92699V6.3125ZM10.1184 14.3842C10.1184 11.4121 12.5278 9.00348 15.5004 9.00348C18.4729 9.00348 20.8823 11.4125 20.8823 14.3848V18.691C20.8823 19.1893 21.069 19.7267 21.2468 20.1518C21.4399 20.6135 21.6929 21.1021 21.9446 21.5505C22.1894 21.9865 22.2477 22.3985 22.1956 22.6766C22.1525 22.9067 22.0374 23.0762 21.7577 23.1827C20.6007 23.6232 18.6477 24.0729 15.5004 24.0729C12.3531 24.0729 10.4 23.6232 9.24307 23.1827C8.96336 23.0762 8.84832 22.9067 8.80517 22.6766C8.75304 22.3985 8.8114 21.9865 9.05615 21.5505C9.30786 21.1021 9.56091 20.6135 9.754 20.1518C9.93174 19.7267 10.1184 19.1893 10.1184 18.691V14.3842Z" fill="#667185"/>
</svg>
