<svg width="20" height="20" viewBox="0 0 20 20" fill="none" xmlns="http://www.w3.org/2000/svg">
<path d="M3.07454 1.66663C2.61431 1.66663 2.24121 2.03972 2.24121 2.49996C2.24121 2.9602 2.61431 3.33329 3.07454 3.33329C3.68156 3.33329 4.21187 3.77436 4.32105 4.39496L4.8927 7.64435C4.89764 7.6724 4.90392 7.69987 4.91148 7.72671L5.08019 8.66956C5.55154 11.3038 5.78721 12.6209 6.60229 13.525C6.90475 13.8605 7.25945 14.1487 7.65369 14.3791C8.71612 15 10.1019 15 12.8735 15H13.2118C14.464 15 15.0901 15 15.6055 14.7803C16.0245 14.6016 16.3887 14.322 16.6632 13.9682C17.0007 13.5331 17.1411 12.9446 17.4219 11.7676C17.846 9.99003 18.0581 9.10122 17.8112 8.40613C17.6119 7.8451 17.2179 7.36765 16.6957 7.05454C16.0487 6.66663 15.1031 6.66663 13.2118 6.66663H6.41296L5.96251 4.10619C5.71533 2.70116 4.50316 1.66663 3.07454 1.66663Z" fill="#175CFF"/>
<path d="M8.74959 17.2916C8.74959 17.8669 8.28322 18.3333 7.70793 18.3333C7.13263 18.3333 6.66626 17.8669 6.66626 17.2916C6.66626 16.7163 7.13263 16.25 7.70793 16.25C8.28322 16.25 8.74959 16.7163 8.74959 17.2916Z" fill="#175CFF"/>
<path d="M15.2079 18.3333C15.7832 18.3333 16.2496 17.8669 16.2496 17.2916C16.2496 16.7163 15.7832 16.25 15.2079 16.25C14.6326 16.25 14.1663 16.7163 14.1663 17.2916C14.1663 17.8669 14.6326 18.3333 15.2079 18.3333Z" fill="#175CFF"/>
</svg>
